<svg width="50" height="45" xmlns="http://www.w3.org/2000/svg">
 <title/>
 <desc/>

 <g>
  <title>Layer 1</title>
  <path fill="currentColor" id="Fill-65" d="m9.869,27c-0.294,0 -0.6,0.035 -0.91,0.104c-1.661,0.369 -3.031,1.693 -3.575,3.456c-2.281,7.382 3.631,13.85 3.884,14.121c0.193,0.208 0.46,0.319 0.732,0.319l0.02,0c0.552,0 1,-0.448 1,-1c0,-0.069 -0.007,-0.136 -0.02,-0.201c-0.001,-0.555 -0.006,-1.095 -0.01,-1.618c-0.033,-3.928 -0.056,-6.765 1.433,-8.254c1.236,-1.237 1.522,-3.201 0.695,-4.778c-0.932,-1.776 -2.281,-2.149 -3.249,-2.149"/>
  <path fill="currentColor" id="Fill-66" d="m41.041,27.104c-0.31,-0.069 -0.616,-0.104 -0.91,-0.104c-0.968,0 -2.316,0.373 -3.249,2.149c-0.827,1.577 -0.541,3.541 0.695,4.777c1.489,1.49 1.466,4.327 1.433,8.255c-0.005,0.586 -0.01,1.193 -0.01,1.819c0,0.411 0.252,0.78 0.634,0.931c0.119,0.047 0.243,0.069 0.366,0.069c0.273,0 0.539,-0.111 0.732,-0.319c0.253,-0.271 6.166,-6.739 3.884,-14.121c-0.544,-1.763 -1.914,-3.087 -3.575,-3.456"/>
  <path fill="currentColor" id="Fill-67" d="m14,22.5c0,2.481 1.794,4.5 4,4.5c1.636,0 3.041,-1.113 3.66,-2.699c0.092,-0.233 0.156,-0.476 0.21,-0.72c0.012,-0.054 0.034,-0.103 0.044,-0.157c0.056,-0.303 0.086,-0.611 0.086,-0.924c0,-2.481 -1.794,-4.5 -4,-4.5c-0.273,0 -0.539,0.032 -0.797,0.091c-0.234,0.053 -0.462,0.137 -0.685,0.237c-1.473,0.665 -2.518,2.28 -2.518,4.172"/>
  <path fill="currentColor" id="Fill-68" d="m20.549,14.843c-0.192,-0.231 -0.373,-0.471 -0.533,-0.73c-0.01,-0.015 -0.017,-0.031 -0.026,-0.046c-0.154,-0.252 -0.288,-0.518 -0.408,-0.793c-0.022,-0.049 -0.044,-0.096 -0.065,-0.145c-0.114,-0.28 -0.21,-0.57 -0.287,-0.869c-0.007,-0.027 -0.02,-0.052 -0.027,-0.08c-1.16,1.068 -1.91,2.431 -2.134,3.898c0.035,-0.006 0.071,-0.004 0.106,-0.009c0.271,-0.041 0.545,-0.069 0.825,-0.069c3.309,0 6,2.916 6,6.5c0,0.234 -0.013,0.465 -0.035,0.693c-0.007,0.069 -0.02,0.136 -0.029,0.204c-0.02,0.16 -0.042,0.32 -0.074,0.477c-0.003,0.016 -0.004,0.034 -0.007,0.05c0.767,0.101 1.523,0.101 2.291,0c-0.004,-0.016 -0.005,-0.034 -0.008,-0.05c-0.032,-0.157 -0.054,-0.317 -0.074,-0.477c-0.009,-0.068 -0.022,-0.135 -0.029,-0.204c-0.022,-0.228 -0.035,-0.459 -0.035,-0.693c0,-3.584 2.691,-6.5 6,-6.5c0.281,0 0.554,0.028 0.825,0.069c0.035,0.005 0.071,0.003 0.106,0.009c-0.224,-1.467 -0.974,-2.83 -2.134,-3.898c-0.007,0.028 -0.019,0.053 -0.027,0.08c-0.077,0.299 -0.173,0.589 -0.287,0.869c-0.02,0.049 -0.043,0.096 -0.065,0.145c-0.12,0.275 -0.254,0.541 -0.408,0.793c-0.009,0.015 -0.016,0.031 -0.025,0.046c-0.161,0.259 -0.342,0.499 -0.534,0.73c-0.037,0.045 -0.073,0.089 -0.111,0.133c-0.192,0.218 -0.397,0.423 -0.616,0.611c-0.04,0.034 -0.081,0.066 -0.122,0.099c-0.227,0.185 -0.462,0.357 -0.712,0.507c-0.008,0.005 -0.015,0.011 -0.024,0.016c-0.254,0.15 -0.522,0.275 -0.797,0.384c-0.052,0.021 -0.103,0.043 -0.156,0.062c-0.269,0.099 -0.547,0.177 -0.832,0.234c-0.054,0.01 -0.108,0.018 -0.163,0.027c-0.3,0.05 -0.605,0.084 -0.918,0.084c-0.313,0 -0.618,-0.034 -0.918,-0.084c-0.055,-0.009 -0.109,-0.017 -0.163,-0.027c-0.285,-0.057 -0.563,-0.135 -0.832,-0.234c-0.053,-0.019 -0.104,-0.041 -0.156,-0.062c-0.275,-0.109 -0.543,-0.234 -0.797,-0.384c-0.009,-0.005 -0.016,-0.011 -0.024,-0.016c-0.25,-0.15 -0.485,-0.322 -0.712,-0.507c-0.041,-0.033 -0.082,-0.065 -0.122,-0.099c-0.219,-0.188 -0.424,-0.393 -0.616,-0.611c-0.038,-0.044 -0.074,-0.088 -0.111,-0.133"/>
  <path fill="currentColor" id="Fill-69" d="m25,15c2.206,0 4,-2.019 4,-4.5c0,-2.481 -1.794,-4.5 -4,-4.5c-2.199,0 -3.987,2.007 -3.998,4.478c-0.002,2.504 1.792,4.522 3.998,4.522"/>
  <path fill="currentColor" id="Fill-70" d="m33.482,18.328c-0.223,-0.1 -0.451,-0.184 -0.685,-0.237c-0.258,-0.059 -0.524,-0.091 -0.797,-0.091c-2.206,0 -4,2.019 -4,4.5c0,0.313 0.03,0.621 0.086,0.924c0.011,0.054 0.032,0.103 0.044,0.157c0.054,0.244 0.118,0.487 0.21,0.72c0.619,1.586 2.024,2.699 3.66,2.699c2.206,0 4,-2.019 4,-4.5c0,-1.892 -1.045,-3.507 -2.518,-4.172"/>
  <path fill="currentColor" id="Fill-71" d="m26.851,25.82c-0.619,0.107 -1.238,0.18 -1.851,0.18c-0.613,0 -1.232,-0.073 -1.851,-0.18c-1.048,1.9 -2.961,3.18 -5.149,3.18c-1.216,0 -2.347,-0.397 -3.293,-1.073c0.059,0.102 0.125,0.184 0.182,0.293c0.787,1.5 0.886,3.237 0.376,4.78l0.776,0c-0.173,2.055 -0.021,6.297 3.444,9.712c0.192,0.188 0.445,0.288 0.703,0.288c0.127,0 0.254,-0.024 0.377,-0.074c0.37,-0.151 0.615,-0.508 0.622,-0.907c0.055,-2.855 0.741,-7.685 2.34,-9.019l3.133,0c1.596,1.332 2.285,6.163 2.34,9.02c0.008,0.399 0.253,0.755 0.623,0.906c0.122,0.05 0.25,0.074 0.377,0.074c0.258,0 0.511,-0.1 0.702,-0.288c3.466,-3.415 3.617,-7.657 3.444,-9.712l0.59,0c-0.511,-1.543 -0.413,-3.28 0.374,-4.78c0.057,-0.108 0.123,-0.191 0.182,-0.292c-0.946,0.676 -2.076,1.072 -3.292,1.072c-2.188,0 -4.101,-1.28 -5.149,-3.18"/>
  <path fill="currentColor" id="Fill-72" d="m25,0c-12.149,0 -25,15.131 -25,29.438c0,1.789 1.27,3.26 2.911,3.51c0.075,-0.969 0.248,-1.964 0.562,-2.978c0.756,-2.448 2.691,-4.294 5.052,-4.819c0.453,-0.1 0.905,-0.151 1.344,-0.151c0.761,0 1.921,0.164 3.043,0.928c-0.574,-0.996 -0.912,-2.169 -0.912,-3.428c0,-2.404 1.214,-4.502 3.009,-5.626c0.043,-2.811 1.536,-5.406 4.028,-7.077c0.325,-3.255 2.874,-5.797 5.963,-5.797c3.089,0 5.638,2.542 5.963,5.797c2.492,1.671 3.985,4.266 4.028,7.077c1.795,1.124 3.009,3.222 3.009,5.626c0,1.259 -0.338,2.432 -0.912,3.428c1.123,-0.764 2.282,-0.928 3.043,-0.928c0.439,0 0.892,0.051 1.345,0.152c2.36,0.524 4.296,2.37 5.051,4.819c0.315,1.019 0.489,2.018 0.563,2.992c1.656,-0.184 2.91,-1.608 2.91,-3.414c0,-12.629 -12.36,-29.549 -25,-29.549"/>
 </g>
</svg>
