<?xml version="1.0" encoding="utf-8"?>
<!-- Svg Vector Icons : http://www.onlinewebfonts.com/icon -->
<!DOCTYPE svg PUBLIC "-//W3C//DTD SVG 1.1//EN" "http://www.w3.org/Graphics/SVG/1.1/DTD/svg11.dtd">
<svg version="1.1" xmlns="http://www.w3.org/2000/svg" xmlns:xlink="http://www.w3.org/1999/xlink" x="0px" y="0px" viewBox="0 0 256 256" enable-background="new 0 0 256 256" xml:space="preserve">
<metadata> Svg Vector Icons : http://www.onlinewebfonts.com/icon </metadata>
<g><g><g><path fill="#000000" d="M118.4,22.5c-5.5,0.8-12.4,2.5-17.5,4.4c-10.1,3.6-22.8,11-32.8,18.9c-6,4.8-18,16.7-22.9,22.9c-19.7,24.7-31.6,52.2-34.6,80c-1.3,12.1-0.7,17.2,2.5,21.8c2,3,5.9,5.6,9.3,6.5c1.2,0.3,1.2,0.3,1.7-3.8c1.9-14.4,8.5-25,19.1-30.3c7.5-3.8,17.8-4,24.9-0.4c2,1,2.3,1.1,2,0.3c-0.2-0.5-1-2.6-1.8-4.8c-1.3-3.6-1.4-4.3-1.4-10.2c0-5.5,0.1-6.7,1.2-9.9c2-6.1,5.1-10.7,10.2-14.8c2.4-2,2.6-2.4,2.6-4.1c0-4.7,2.4-11.9,5.7-17.5c2.3-3.7,6.8-8.8,10.4-11.6c2.6-2,2.6-2.1,3.5-5.8c1.4-6.6,5.4-13.2,10.6-17.4c8.8-7.3,21.7-8.1,31.2-1.9c6.7,4.3,11.5,11.4,13.2,19.5c0.7,3.6,0.8,3.6,3.4,5.7c5.7,4.4,10.8,11.2,13.5,17.8c1.4,3.5,2.6,8.8,2.6,11.4c0,1.6,0.3,2,2.6,4c5,4.1,8.1,8.6,10.2,14.8c1.1,3.2,1.2,4.4,1.2,9.9c0,5.8-0.1,6.5-1.4,10.2c-0.8,2.2-1.6,4.3-1.8,4.8c-0.3,0.7,0,0.7,2-0.3c7.1-3.6,17.4-3.4,24.9,0.4c10.6,5.4,17.2,15.8,19.1,30.3l0.6,4.2l1.4-0.3c4.5-1,8.8-4.5,10.8-8.9c1.2-2.5,1.2-3,1.2-9.3c-0.1-28.1-14.9-63.5-38.3-91.9c-5.3-6.5-16.3-17.3-22.3-22.2c-10.3-8.3-23.3-15.6-33.7-19C141.2,22.3,128.3,21.1,118.4,22.5z"/><path fill="#000000" d="M124.9,50.4c-8.6,1.8-14.8,9.5-15.5,19.4c-0.7,8.9,4.2,17.6,11.7,21.1c2.3,1.1,3.3,1.2,7.1,1.2c3.8,0,4.8-0.2,7.1-1.2c11.5-5.4,15.4-21.2,7.9-32.5C139.1,52.5,131.4,49.1,124.9,50.4z"/><path fill="#000000" d="M98,82.3c-3.5,3.8-5.9,8.6-7,13.7l-0.3,1.5h4.4c7.9,0,14.5,3,20.1,9.1c3.2,3.4,6,8.8,7.2,13.5c0.8,3,1.1,9.2,0.6,12.7l-0.2,1.8h5.3h5.3l-0.2-1.8c-2.4-19,10.6-35.3,28-35.3h4.4l-0.3-1.5c-1.1-5.1-3.8-10.2-7.3-14l-2.4-2.6l-0.8,2.5c-2.3,7-8.4,14.2-14.6,17.2c-4.8,2.3-6.9,2.8-12,2.8c-5,0-7.2-0.5-12-2.8c-6.2-3-12.4-10.2-14.6-17.1c-0.5-1.3-0.9-2.4-0.9-2.4C100.5,79.5,99.3,80.7,98,82.3z"/><path fill="#000000" d="M90.5,107.3c-5.5,1.8-9.4,5.3-12,10.6c-5.4,11-1.1,24.6,9.3,29.5c2.8,1.3,3.6,1.5,7.3,1.5c3.5,0,4.6-0.2,6.8-1.2c5.1-2.4,9.3-7.6,11.1-13.7c0.9-3.1,1-8.7,0.1-11.9c-1.6-5.9-6.1-11.6-11.2-13.9C98.9,106.9,93.3,106.4,90.5,107.3z"/><path fill="#000000" d="M156.7,107.3c-4.6,1.3-9.7,5.7-12,10.2c-5.4,11.2-0.9,25.2,9.6,30.1c2.3,1,3.3,1.2,6.8,1.2c3.7,0,4.5-0.1,7.3-1.5c12.8-6,15.6-25,5.3-35.3C169.2,107.7,162.3,105.8,156.7,107.3z"/><path fill="#000000" d="M118.1,145.6c-3.5,5.4-8.7,9.4-14.7,11.5c-3.1,1.1-4.5,1.3-8.1,1.3c-5.1,0-8.3-0.7-12.6-2.9l-3.1-1.6l1.1,2.2c2.8,5.4,3.5,12.6,1.9,19.8c-0.3,1.5-0.3,1.5,1.3,1.5h1.7v5.4c0,12.7,3.7,24.5,10.7,33.8c3.6,4.8,6.5,7.7,8.1,8c1.7,0.3,4.4-0.9,5.1-2.4c0.3-0.6,0.6-2.2,0.6-3.5c0-6.5,2.1-20.8,4-27.4c1.4-5,3.8-10,5.7-12.2l1.5-1.7h7.3h7.3l1.5,1.7c4.5,5.1,8.1,18.7,9.2,35c0.6,8,1,9.1,3.3,10.2c2.4,1,3.7,0.4,7.4-3.5c9.3-10,14.2-23.3,14.2-38.6v-4.8h1.2c1.2,0,1.2-0.1,0.9-1.5c-0.8-4-1.1-7.7-0.6-11.1c0.4-3.5,2.2-9,3.2-10.3c0.3-0.3-0.9,0.1-2.7,1c-4.3,2.2-7.4,3-12.4,3c-9,0-17.2-4.4-22.6-12.2l-1.8-2.5l-2.6,0.4c-3.3,0.4-8.8,0.4-12.1,0l-2.6-0.4L118.1,145.6z"/><path fill="#000000" d="M51.6,149.9c-5.9,1.6-11.4,6.1-14.3,11.5c-5.3,10.1-5.6,27.1-0.8,41.6c3,9.1,10.7,22.4,16.3,28.3c2.3,2.4,2.9,2.8,4.4,2.8c1.2,0,2.1-0.4,3.2-1.3l1.5-1.3l0-14.7c0-23.1,1-27.8,7.1-35.2c3.9-4.8,4.8-7.3,4.8-13.2c0-5.4-0.9-8.2-3.8-12C65.5,150.3,58.8,148,51.6,149.9z"/><path fill="#000000" d="M194.8,149.9c-7.8,2.4-13.2,10.8-12.6,19.5c0.3,4.8,1.7,7.9,5,12c3.3,4,4.6,6.6,5.7,11.5c1.1,4.6,1.7,17.9,1.3,27.7c-0.3,9,0,10.8,2,12.5c0.7,0.6,1.9,0.9,2.9,0.9c1.4,0,2-0.4,4.2-2.7c5.5-5.8,13.3-19.4,16.3-28.4c5-14.9,4.4-32.6-1.4-42.6c-1.7-3-5.9-7-8.8-8.5C204.7,149.3,199.3,148.6,194.8,149.9z"/></g></g></g>
</svg>